<?xml version="1.0" encoding="utf-8"?>
<!-- Generator: Adobe Illustrator 27.4.1, SVG Export Plug-In . SVG Version: 6.00 Build 0)  -->
<svg version="1.1" id="Layer_1" xmlns="http://www.w3.org/2000/svg" xmlns:xlink="http://www.w3.org/1999/xlink" x="0px" y="0px"
	 viewBox="0 0 38 45" style="enable-background:new 0 0 38 45;" xml:space="preserve">
<style type="text/css">
	.st0{fill:#B5B5B5;}
	.st1{fill:#91FDFF;}
	.st2{fill:#D3D3D3;}
</style>
<path class="st0" d="M28.5,38.1H19H9.5l-4.8-8l-4.8-8l4.7-8l4.7-8H19h9.5l4.7,8l4.7,8l-4.7,8L28.5,38.1z"/>
<path class="st1" d="M5.3,30V13.7L19,5.6l13.7,8.1V30L19,38.2L5.3,30z"/>
<path class="st2" d="M31.1,14.6L19,7.4L6.9,14.6V29L19,36.2l12.1-7.1V14.6 M34.3,12.7v18.2L19,40L3.7,31V12.7l15.3-9L34.3,12.7z"/>
</svg>
